<?xml version="1.0" standalone="no"?>
<!DOCTYPE svg PUBLIC "-//W3C//DTD SVG 20010904//EN"
 "http://www.w3.org/TR/2001/REC-SVG-20010904/DTD/svg10.dtd">
<svg version="1.0" xmlns="http://www.w3.org/2000/svg"
 width="80.000000pt" height="70.000000pt" viewBox="0 0 80.000000 70.000000"
 preserveAspectRatio="xMidYMid meet">

<g transform="translate(0.000000,70.000000) scale(0.100000,-0.100000)"
fill="#000000" stroke="none">
<path d="M310 560 c-79 -9 -97 -16 -105 -40 -9 -28 63 -150 88 -150 9 0 8 49
-2 75 -9 22 1 50 22 58 8 3 94 11 192 18 98 7 170 16 159 20 -25 9 -215 29
-257 28 -18 -1 -61 -5 -97 -9z"/>
<path d="M125 490 c29 -100 170 -341 215 -368 18 -11 26 -11 47 3 22 15 73
109 73 135 0 15 -33 0 -58 -27 -46 -47 -66 -33 -174 126 -110 161 -113 166
-103 131z"/>
<path d="M502 473 c-51 -7 -36 -29 33 -50 51 -14 45 -45 -40 -214 -41 -84 -74
-154 -72 -156 12 -12 126 153 183 265 75 147 57 175 -104 155z"/>
<path d="M450 411 c0 -6 4 -13 10 -16 6 -3 7 1 4 9 -7 18 -14 21 -14 7z"/>
</g>
</svg>
